<svg xmlns="http://www.w3.org/2000/svg" viewBox="0 0 1400 800" role="img" aria-label="拖延失控場景插圖">
  <defs>
    <linearGradient id="bg" x1="0" y1="0" x2="0" y2="1">
      <stop offset="0%" stop-color="#32354a"/>
      <stop offset="55%" stop-color="#666d8f"/>
      <stop offset="100%" stop-color="#a9acc1"/>
    </linearGradient>
    <radialGradient id="spot" cx="55%" cy="34%" r="65%">
      <stop offset="0%" stop-color="#ffffff" stop-opacity="0.30"/>
      <stop offset="100%" stop-color="#ffffff" stop-opacity="0"/>
    </radialGradient>
    <filter id="grain" x="-20%" y="-20%" width="140%" height="140%">
      <feTurbulence type="fractalNoise" baseFrequency="0.75" numOctaves="2" seed="7"/>
      <feColorMatrix type="saturate" values="0"/>
      <feComponentTransfer><feFuncA type="table" tableValues="0 0.06"/></feComponentTransfer>
    </filter>
    <filter id="blurSoft"><feGaussianBlur stdDeviation="10"/></filter>
    <linearGradient id="card" x1="0" y1="0" x2="1" y2="1">
      <stop offset="0%" stop-color="#ffffff" stop-opacity="0.26"/>
      <stop offset="100%" stop-color="#ffffff" stop-opacity="0.06"/>
    </linearGradient>
  </defs>

  <rect width="1400" height="800" fill="url(#bg)"/>
  <rect width="1400" height="800" fill="url(#spot)"/>
  <path d="M-100 170 C 190 100, 420 260, 760 170 C 1000 100, 1180 250, 1520 180 L 1520 900 L -120 900 Z" fill="#e8e8f0" fill-opacity="0.05"/><path d="M-100 290 C 190 220, 420 380, 760 290 C 1000 220, 1180 370, 1520 300 L 1520 900 L -120 900 Z" fill="#e8e8f0" fill-opacity="0.08"/><path d="M-100 410 C 190 340, 420 500, 760 410 C 1000 340, 1180 490, 1520 420 L 1520 900 L -120 900 Z" fill="#e8e8f0" fill-opacity="0.11"/><path d="M-100 530 C 190 460, 420 620, 760 530 C 1000 460, 1180 610, 1520 540 L 1520 900 L -120 900 Z" fill="#e8e8f0" fill-opacity="0.14"/>
  <g filter="url(#blurSoft)"><ellipse cx="427" cy="682" rx="167" ry="145" fill="#e8e8f0" fill-opacity="0.165"/><ellipse cx="195" cy="89" rx="198" ry="122" fill="#a9acc1" fill-opacity="0.123"/><ellipse cx="715" cy="546" rx="200" ry="145" fill="#e8e8f0" fill-opacity="0.152"/><ellipse cx="1010" cy="507" rx="219" ry="70" fill="#ffffff" fill-opacity="0.226"/><ellipse cx="850" cy="700" rx="220" ry="57" fill="#e8e8f0" fill-opacity="0.110"/><ellipse cx="433" cy="834" rx="162" ry="81" fill="#ffffff" fill-opacity="0.142"/><ellipse cx="830" cy="584" rx="92" ry="45" fill="#e8e8f0" fill-opacity="0.095"/><ellipse cx="33" cy="847" rx="204" ry="65" fill="#a9acc1" fill-opacity="0.080"/><ellipse cx="1180" cy="161" rx="186" ry="138" fill="#a9acc1" fill-opacity="0.144"/><ellipse cx="830" cy="660" rx="195" ry="79" fill="#a9acc1" fill-opacity="0.221"/><ellipse cx="72" cy="446" rx="162" ry="96" fill="#e8e8f0" fill-opacity="0.133"/><ellipse cx="1354" cy="14" rx="146" ry="118" fill="#e8e8f0" fill-opacity="0.217"/><ellipse cx="484" cy="558" rx="67" ry="119" fill="#a9acc1" fill-opacity="0.188"/><ellipse cx="229" cy="678" rx="120" ry="115" fill="#e8e8f0" fill-opacity="0.214"/><ellipse cx="679" cy="840" rx="184" ry="124" fill="#ffffff" fill-opacity="0.131"/><ellipse cx="1062" cy="286" rx="97" ry="46" fill="#a9acc1" fill-opacity="0.197"/><ellipse cx="1344" cy="678" rx="176" ry="149" fill="#ffffff" fill-opacity="0.088"/><ellipse cx="987" cy="38" rx="153" ry="71" fill="#e8e8f0" fill-opacity="0.223"/><ellipse cx="73" cy="432" rx="116" ry="127" fill="#e8e8f0" fill-opacity="0.218"/><ellipse cx="1265" cy="-66" rx="75" ry="61" fill="#a9acc1" fill-opacity="0.113"/><ellipse cx="398" cy="28" rx="85" ry="87" fill="#ffffff" fill-opacity="0.163"/><ellipse cx="632" cy="190" rx="77" ry="62" fill="#ffffff" fill-opacity="0.129"/><ellipse cx="1218" cy="599" rx="148" ry="85" fill="#a9acc1" fill-opacity="0.112"/><ellipse cx="457" cy="622" rx="64" ry="66" fill="#a9acc1" fill-opacity="0.140"/></g>

  <g opacity="0.78">
    <path d="M140 710 C 130 590, 180 500, 290 470 C 370 450, 430 500, 445 585 C 455 650, 450 700, 450 710 Z" fill="#13263c"/>
    <ellipse cx="320" cy="430" rx="64" ry="74" fill="#c5bdd8"/>
    <path d="M260 432 C 264 365, 375 355, 385 430 C 348 445, 294 445, 260 432 Z" fill="#e8d6c8" fill-opacity="0.32"/>
    <path d="M530 705 C 520 560, 620 445, 760 450 C 930 458, 1006 585, 990 705 Z" fill="#182f4a"/>
    <ellipse cx="760" cy="400" rx="76" ry="90" fill="#c5bdd8"/>
  </g>

  <g>
    <rect x="870" y="120" width="420" height="560" rx="28" fill="url(#card)" stroke="#ffffff" stroke-opacity="0.24"/>
    <rect x="920" y="180" width="320" height="54" rx="14" fill="#ffffff" fill-opacity="0.28"/>
    <rect x="920" y="262" width="286" height="40" rx="12" fill="#ffffff" fill-opacity="0.22"/>
    <rect x="920" y="320" width="250" height="40" rx="12" fill="#ffffff" fill-opacity="0.19"/>
    <rect x="920" y="378" width="305" height="40" rx="12" fill="#ffffff" fill-opacity="0.16"/>
  </g>

  <g filter="url(#grain)"><rect width="1400" height="800" fill="#000"/></g>
  <text x="88" y="112" fill="#ffffff" fill-opacity="0.90" font-family="'Noto Sans TC',sans-serif" font-size="44" font-weight="700">拖延失控</text>
</svg>